<?xml version="1.0" encoding="UTF-8" standalone="no"?>
<!-- Created with Inkscape (http://www.inkscape.org/) -->

<svg
   width="210mm"
   height="297mm"
   viewBox="0 0 210 297"
   version="1.1"
   id="svg5"
   inkscape:version="1.1.1 (3bf5ae0d25, 2021-09-20)"
   sodipodi:docname="shapes.svg"
   xmlns:inkscape="http://www.inkscape.org/namespaces/inkscape"
   xmlns:sodipodi="http://sodipodi.sourceforge.net/DTD/sodipodi-0.dtd"
   xmlns="http://www.w3.org/2000/svg"
   xmlns:svg="http://www.w3.org/2000/svg">
  <sodipodi:namedview
     id="namedview7"
     pagecolor="#ffffff"
     bordercolor="#666666"
     borderopacity="1.0"
     inkscape:pageshadow="2"
     inkscape:pageopacity="0.0"
     inkscape:pagecheckerboard="0"
     inkscape:document-units="mm"
     showgrid="false"
     inkscape:zoom="1.28"
     inkscape:cx="458.59375"
     inkscape:cy="191.79688"
     inkscape:window-width="1920"
     inkscape:window-height="1001"
     inkscape:window-x="-9"
     inkscape:window-y="-9"
     inkscape:window-maximized="1"
     inkscape:current-layer="layer1" />
  <defs
     id="defs2">
    <inkscape:perspective
       sodipodi:type="inkscape:persp3d"
       inkscape:vp_x="0 : 148.5 : 1"
       inkscape:vp_y="0 : 1000 : 0"
       inkscape:vp_z="210 : 148.5 : 1"
       inkscape:persp3d-origin="105 : 99 : 1"
       id="perspective1136" />
  </defs>
  <g
     inkscape:label="Calque 1"
     inkscape:groupmode="layer"
     id="layer1">
    <path
       style="fill:#000000;stroke-width:0.0595209"
       d="m 41.859657,77.822399 c -3.722305,-0.351663 -6.752649,-2.697116 -7.910077,-6.122338 -0.132746,-0.392835 -0.28541,-0.941922 -0.339253,-1.220176 -0.116179,-0.600407 -0.190194,-1.931262 -0.130755,-2.351084 0.273304,-1.930375 0.643917,-2.992165 1.510547,-4.327637 0.644622,-0.99336 2.026659,-2.273764 3.088473,-2.861343 0.445981,-0.246796 1.968598,-0.93563 2.068142,-0.93563 0.02437,0 0.265736,-0.105338 0.53637,-0.234068 0.270634,-0.12874 0.880435,-0.408262 1.355116,-0.621156 0.47468,-0.212894 1.238036,-0.55908 1.696348,-0.769294 0.458312,-0.210224 1.020785,-0.467802 1.249941,-0.572407 0.229156,-0.104595 0.497,-0.227324 0.59521,-0.272723 0.09821,-0.04536 0.299093,-0.134271 0.446407,-0.197513 0.927413,-0.398114 2.304853,-1.017422 3.065331,-1.378202 0.261893,-0.12424 0.770798,-0.353293 1.130899,-0.509001 1.20872,-0.522634 2.080818,-0.905041 2.4106,-1.057 0.180052,-0.08301 0.581817,-0.264323 0.892815,-0.403011 0.310998,-0.138688 0.607735,-0.288548 0.659418,-0.333024 0.05168,-0.04445 0.129314,-0.08084 0.172513,-0.08084 0.0819,0 2.142871,-0.908988 3.322491,-1.465371 0.846943,-0.399471 1.700131,-0.693749 2.512578,-0.86663 0.527454,-0.112236 0.809027,-0.132831 1.814742,-0.132759 1.228256,8.2e-5 1.603112,0.05088 2.589163,0.350632 0.180052,0.05477 0.488071,0.142807 0.684492,0.195693 0.196418,0.05287 0.392519,0.131193 0.435779,0.174004 0.04325,0.04282 0.105535,0.07785 0.138396,0.07785 0.06981,0 0.806976,0.428794 1.151934,0.67005 0.130946,0.09159 0.385397,0.269537 0.565449,0.395461 0.603029,0.421741 1.656815,1.607127 2.198488,2.473042 0.29022,0.463945 0.765239,1.455829 0.913574,1.907626 0.244511,0.744707 0.287969,0.933973 0.368745,1.605869 0.127963,1.064397 0.153597,1.725964 0.08031,2.072431 -0.03602,0.170282 -0.06285,0.376568 -0.0596,0.458405 0.01098,0.276571 -0.369732,1.696406 -0.471768,1.759467 -0.02953,0.01829 -0.0537,0.07342 -0.0537,0.122493 0,0.14288 -0.474482,1.081606 -0.808735,1.600013 -0.691628,1.072689 -1.741126,2.117369 -2.851805,2.838738 -0.408775,0.26549 -1.467804,0.796218 -2.351078,1.178244 -0.245526,0.106189 -0.621427,0.280065 -0.835341,0.386399 -0.213911,0.106334 -0.45497,0.213718 -0.535689,0.238631 -0.08071,0.0249 -0.441384,0.177968 -0.801487,0.340112 -0.360102,0.162153 -0.922575,0.415531 -1.249941,0.563064 -0.327365,0.147524 -0.688957,0.316448 -0.803534,0.375382 -0.114577,0.05893 -0.275286,0.127318 -0.357126,0.15196 -0.08184,0.02462 -0.392749,0.161637 -0.690905,0.304435 -0.298156,0.142798 -0.571274,0.259633 -0.606925,0.259633 -0.03565,0 -0.474709,0.189257 -0.975683,0.420573 -1.056901,0.488017 -1.259474,0.579459 -1.744153,0.787337 -0.19642,0.08428 -0.571401,0.251993 -0.833295,0.372775 -0.261893,0.120782 -0.770796,0.346422 -1.130898,0.501432 -0.360102,0.155011 -0.869007,0.382597 -1.1309,0.505751 -0.261891,0.123163 -0.572425,0.258221 -0.690073,0.300135 -0.117648,0.04191 -0.666729,0.282365 -1.220182,0.534349 -1.433366,0.652595 -1.493561,0.679636 -1.988369,0.893345 -0.245525,0.106044 -0.674076,0.299555 -0.952336,0.430024 -2.327759,1.091464 -3.462465,1.422044 -5.036763,1.467398 -0.45433,0.01313 -0.946586,0.0124 -1.093899,-0.0018 z m 1.753458,-0.262068 c 1.147818,-0.131482 1.978168,-0.371073 2.978461,-0.859388 1.199113,-0.585379 2.041399,-1.24021 2.860279,-2.223693 1.059247,-1.272176 1.645115,-2.54504 1.933553,-4.200862 0.277458,-1.59278 0.01237,-3.546185 -0.68658,-5.059363 -0.787956,-1.705866 -2.190537,-3.24174 -3.763955,-4.121641 -1.895346,-1.059943 -4.075787,-1.378492 -6.232503,-0.910536 -3.596182,0.780284 -6.29596,3.616696 -6.909763,7.259464 -0.09687,0.574923 -0.110961,1.843215 -0.0276,2.484993 0.114751,0.883441 0.288699,1.471725 0.74879,2.532383 0.767157,1.768539 2.202055,3.26239 3.982925,4.146564 1.706097,0.847049 3.354907,1.153874 5.116395,0.952079 z M 41.919178,74.729297 C 40.60024,74.478861 39.75096,74.152844 39.03241,73.621175 c -0.949093,-0.702268 -1.680519,-1.702517 -2.079041,-2.843174 -0.734922,-2.103509 -0.222663,-4.496697 1.297603,-6.062182 1.700642,-1.751221 4.338681,-2.320169 6.559603,-1.414712 1.607104,0.655212 2.862756,1.966152 3.417935,3.568427 0.740236,2.136362 0.25445,4.398946 -1.302933,6.068493 -0.59259,0.635268 -1.701982,1.321893 -2.476758,1.532913 -0.731852,0.199333 -0.978814,0.238748 -1.636827,0.261208 -0.409206,0.01394 -0.810973,0.01267 -0.892814,-0.0027 z m 1.993194,-0.361531 c 2.586819,-0.587824 4.435073,-2.874941 4.435073,-5.488156 0,-1.511803 -0.564599,-2.904597 -1.636933,-4.038103 -2.01612,-2.131138 -5.443878,-2.325609 -7.767384,-0.440679 -0.780652,0.633295 -1.294234,1.320988 -1.665634,2.230284 -0.727644,1.781493 -0.528005,3.771643 0.535354,5.336793 0.905426,1.332694 2.520584,2.32953 4.017048,2.479235 0.19642,0.01964 0.370519,0.04879 0.386887,0.06482 0.05584,0.05459 1.278585,-0.04943 1.695589,-0.144174 z m 5.655253,1.050871 c 0.654731,-0.30076 1.926993,-0.875673 2.827248,-1.277589 0.900254,-0.401915 2.306437,-1.031589 3.12485,-1.399267 0.818415,-0.367687 1.769262,-0.788749 2.112997,-0.935703 0.641742,-0.274362 1.586028,-0.694682 2.112995,-0.940537 0.163682,-0.07641 0.659195,-0.298904 1.101138,-0.494534 0.441943,-0.19563 1.031202,-0.461745 1.309463,-0.591363 0.27826,-0.129626 0.733595,-0.336581 1.011856,-0.459907 0.278261,-0.123317 0.746988,-0.337876 1.041618,-0.476782 0.294629,-0.138915 0.857102,-0.395696 1.249941,-0.570632 1.019333,-0.453923 1.699614,-0.895191 2.525626,-1.638269 2.469571,-2.221593 3.467386,-5.804251 2.497623,-8.967685 -0.641346,-2.092111 -2.090015,-3.951051 -3.9743,-5.099837 -1.743551,-1.062985 -3.779255,-1.481494 -5.780867,-1.188447 -0.94347,0.138127 -1.998925,0.468634 -2.871273,0.89912 -0.253367,0.125037 -0.472803,0.227333 -0.487635,0.227333 -0.02318,0 -2.227468,0.986996 -2.920559,1.307717 -0.130945,0.06056 -0.666634,0.298225 -1.190418,0.528075 -0.874182,0.38362 -1.440326,0.635712 -2.827249,1.258931 -0.27826,0.125037 -1.389814,0.62857 -2.470121,1.118958 -1.080306,0.490388 -2.232036,1.004694 -2.559402,1.142893 -0.327365,0.138209 -1.144291,0.500192 -1.815391,0.804411 -0.671098,0.304227 -1.541593,0.692817 -1.934432,0.863543 -0.767051,0.333358 -0.964795,0.455942 -0.636391,0.39451 2.215204,-0.414408 4.663626,0.06563 6.501343,1.274747 1.366163,0.89883 2.185165,1.755756 3.012126,3.151619 0.360182,0.607966 0.459633,0.835597 0.766808,1.75515 0.454129,1.359453 0.548872,3.58292 0.205435,4.821193 -0.342902,1.236345 -0.792158,2.21867 -1.405263,3.072671 -0.397186,0.553251 -1.338798,1.567911 -1.654696,1.783059 -0.116314,0.07921 -0.211662,0.166988 -0.211885,0.195042 -4.73e-4,0.06147 -0.111575,0.107837 1.338815,-0.55842 z"
       id="path1248"
       inkscape:export-filename="C:\Users\guill\Desktop\MecaWeb All\Mecaweb tauri\MecaWeb-app\MecaWeb\img\shapes\hollow_cyl.png"
       inkscape:export-xdpi="96.643501"
       inkscape:export-ydpi="96.643501" />
    <rect
       style="fill:none;fill-opacity:1;stroke:none;stroke-width:0.0892166;stroke-linecap:round;stroke-linejoin:round;stroke-miterlimit:4;stroke-dasharray:none"
       id="rect874-0"
       width="39.598286"
       height="31.660784"
       x="77.059731"
       y="48.472832"
       inkscape:export-filename="C:\Users\guill\Desktop\MecaWeb All\Mecaweb tauri\MecaWeb-app\MecaWeb\img\shapes\cyl.png"
       inkscape:export-xdpi="96.643501"
       inkscape:export-ydpi="96.643501" />
    <rect
       style="fill:none;fill-opacity:1;stroke:none;stroke-width:0.0892166;stroke-linecap:round;stroke-linejoin:round;stroke-miterlimit:4;stroke-dasharray:none"
       id="rect874-0-8"
       width="39.598286"
       height="31.660784"
       x="121.23658"
       y="53.445248"
       inkscape:export-filename="C:\Users\guill\Desktop\MecaWeb All\Mecaweb tauri\MecaWeb-app\MecaWeb\img\shapes\pave.png"
       inkscape:export-xdpi="96.643501"
       inkscape:export-ydpi="96.643501" />
    <rect
       style="fill:none;fill-opacity:1;stroke:none;stroke-width:0.0892166;stroke-linecap:round;stroke-linejoin:round;stroke-miterlimit:4;stroke-dasharray:none"
       id="rect874-0-3"
       width="39.598286"
       height="31.660784"
       x="32.517342"
       y="48.641861"
       inkscape:export-filename="C:\Users\guill\Desktop\MecaWeb All\Mecaweb tauri\MecaWeb-app\MecaWeb\img\shapes\hollow_cyl.png"
       inkscape:export-xdpi="96.643501"
       inkscape:export-ydpi="96.643501" />
    <path
       style="fill:#000000;stroke-width:0.0595209"
       d="m 86.402049,77.653369 c -3.722305,-0.351663 -6.752649,-2.697116 -7.910077,-6.122338 -0.132746,-0.392835 -0.28541,-0.941922 -0.339253,-1.220176 -0.116179,-0.600407 -0.190194,-1.931262 -0.130755,-2.351084 0.273304,-1.930375 0.643917,-2.992165 1.510547,-4.327637 0.644622,-0.99336 2.026659,-2.273764 3.088473,-2.861343 0.445981,-0.246796 1.968598,-0.93563 2.068142,-0.93563 0.02437,0 0.265736,-0.105338 0.53637,-0.234068 0.270634,-0.12874 0.880435,-0.408262 1.355116,-0.621156 0.47468,-0.212894 1.238036,-0.55908 1.696348,-0.769294 0.458312,-0.210224 1.020785,-0.467802 1.249941,-0.572407 0.229156,-0.104595 0.497,-0.227324 0.59521,-0.272723 0.09821,-0.04536 0.299093,-0.134271 0.446407,-0.197513 0.927413,-0.398114 2.304853,-1.017422 3.065331,-1.378202 0.261893,-0.12424 0.770798,-0.353293 1.130899,-0.509001 1.20872,-0.522634 2.080818,-0.905041 2.4106,-1.057 0.180052,-0.08301 0.581817,-0.264323 0.892815,-0.403011 0.310998,-0.138688 0.607735,-0.288548 0.659418,-0.333024 0.05168,-0.04445 0.129314,-0.08084 0.172513,-0.08084 0.0819,0 2.142866,-0.908988 3.322486,-1.465371 0.84694,-0.399471 1.70013,-0.693749 2.51258,-0.86663 0.52745,-0.112236 0.80903,-0.132831 1.81474,-0.132759 1.22826,8.2e-5 1.60311,0.05088 2.58916,0.350632 0.18006,0.05477 0.48808,0.142807 0.6845,0.195693 0.19641,0.05287 0.39252,0.131193 0.43578,0.174004 0.0433,0.04282 0.10553,0.07785 0.13839,0.07785 0.0698,0 0.80698,0.428794 1.15194,0.67005 0.13094,0.09159 0.38539,0.269537 0.56544,0.395461 0.60303,0.421741 1.65682,1.607127 2.19849,2.473042 0.29022,0.463945 0.76524,1.455829 0.91358,1.907626 0.24451,0.744707 0.28797,0.933973 0.36874,1.605869 0.12796,1.064397 0.1536,1.725964 0.0803,2.072431 -0.036,0.170282 -0.0628,0.376568 -0.0596,0.458405 0.011,0.276571 -0.36973,1.696406 -0.47177,1.759467 -0.0295,0.01829 -0.0537,0.07342 -0.0537,0.122493 0,0.14288 -0.47448,1.081606 -0.80873,1.600013 -0.69163,1.072689 -1.74113,2.117369 -2.85181,2.838738 -0.40877,0.26549 -1.4678,0.796218 -2.35107,1.178244 -0.24553,0.106189 -0.62143,0.280065 -0.83535,0.386399 -0.21391,0.106334 -0.45497,0.213718 -0.53568,0.238631 -0.0807,0.0249 -0.44139,0.177968 -0.80149,0.340112 -0.3601,0.162153 -0.92258,0.415531 -1.24994,0.563064 -0.32737,0.147524 -0.68896,0.316448 -0.80354,0.375382 -0.11457,0.05893 -0.27528,0.127318 -0.35712,0.15196 -0.0818,0.02462 -0.39275,0.161637 -0.69091,0.304435 -0.29815,0.142798 -0.57127,0.259633 -0.60692,0.259633 -0.0356,0 -0.47471,0.189257 -0.97569,0.420573 -1.0569,0.488017 -1.25947,0.579459 -1.74415,0.787337 -0.19642,0.08428 -0.571396,0.251993 -0.83329,0.372775 -0.261893,0.120782 -0.770796,0.346422 -1.130898,0.501432 -0.360102,0.155011 -0.869007,0.382597 -1.1309,0.505751 -0.261891,0.123163 -0.572425,0.258221 -0.690073,0.300135 -0.117648,0.04191 -0.666729,0.282365 -1.220182,0.534349 -1.433366,0.652595 -1.493561,0.679636 -1.988369,0.893345 -0.245525,0.106044 -0.674076,0.299555 -0.952336,0.430024 -2.327759,1.091464 -3.462465,1.422044 -5.036763,1.467398 -0.45433,0.01313 -0.946586,0.0124 -1.093899,-0.0018 z m 1.753458,-0.262068 c 1.147818,-0.131482 1.978168,-0.371073 2.978461,-0.859388 1.199113,-0.585379 2.041399,-1.24021 2.860279,-2.223693 1.059247,-1.272176 1.645115,-2.54504 1.933553,-4.200862 0.277458,-1.59278 0.01237,-3.546185 -0.68658,-5.059363 -0.787956,-1.705866 -2.190537,-3.24174 -3.763955,-4.121641 -1.895346,-1.059943 -4.075787,-1.378492 -6.232503,-0.910536 -3.596182,0.780284 -6.29596,3.616696 -6.909763,7.259464 -0.09687,0.574923 -0.110961,1.843215 -0.0276,2.484993 0.114751,0.883441 0.288699,1.471725 0.74879,2.532383 0.767157,1.768539 2.202055,3.26239 3.982925,4.146564 1.706097,0.847049 3.354907,1.153874 5.116395,0.952079 z m 5.95451,-2.141694 c 0.654731,-0.30076 1.926993,-0.875673 2.827248,-1.277589 0.900254,-0.401915 2.306437,-1.031589 3.124845,-1.399267 0.81842,-0.367687 1.76926,-0.788749 2.113,-0.935703 0.64174,-0.274362 1.58603,-0.694682 2.11299,-0.940537 0.16369,-0.07641 0.6592,-0.298904 1.10114,-0.494534 0.44194,-0.19563 1.0312,-0.461745 1.30946,-0.591363 0.27826,-0.129626 0.7336,-0.336581 1.01186,-0.459907 0.27826,-0.123317 0.74699,-0.337876 1.04162,-0.476782 0.29463,-0.138915 0.8571,-0.395696 1.24994,-0.570632 1.01933,-0.453923 1.69961,-0.895191 2.52563,-1.638269 2.46957,-2.221593 3.46738,-5.804251 2.49762,-8.967685 -0.64135,-2.092111 -2.09002,-3.951051 -3.9743,-5.099837 -1.74355,-1.062985 -3.77926,-1.481494 -5.78087,-1.188447 -0.94347,0.138127 -1.99892,0.468634 -2.87127,0.89912 -0.25337,0.125037 -0.4728,0.227333 -0.48764,0.227333 -0.0232,0 -2.227461,0.986996 -2.920552,1.307717 -0.130945,0.06056 -0.666634,0.298225 -1.190418,0.528075 -0.874182,0.38362 -1.440326,0.635712 -2.827249,1.258931 -0.27826,0.125037 -1.389814,0.62857 -2.470121,1.118958 -1.080306,0.490388 -2.232036,1.004694 -2.559402,1.142893 -0.327365,0.138209 -1.144291,0.500192 -1.815391,0.804411 -0.671098,0.304227 -1.541593,0.692817 -1.934432,0.863543 -0.767051,0.333358 -0.964795,0.455942 -0.636391,0.39451 2.215204,-0.414408 4.663626,0.06563 6.501343,1.274747 1.366163,0.89883 2.185165,1.755756 3.012126,3.151619 0.360182,0.607966 0.459633,0.835597 0.766808,1.75515 0.454129,1.359453 0.548872,3.58292 0.205435,4.821193 -0.342902,1.236345 -0.792158,2.21867 -1.405263,3.072671 -0.397186,0.553251 -1.338798,1.567911 -1.654696,1.783059 -0.116314,0.07921 -0.211662,0.166988 -0.211885,0.195042 -4.73e-4,0.06147 -0.111575,0.107837 1.338815,-0.55842 z"
       id="path1248-0"
       sodipodi:nodetypes="cssssssssssccsscsssssscsssssssssccssssssssssssscssssssccccssssssssssssssssscssssssssssscssssssccsssssss"
       inkscape:export-filename="C:\Users\guill\Desktop\MecaWeb All\Mecaweb tauri\MecaWeb-app\MecaWeb\img\shapes\cyl.png"
       inkscape:export-xdpi="96.643501"
       inkscape:export-ydpi="96.643501" />
    <path
       style="fill:none;stroke:#000000;stroke-width:0.264583px;stroke-linecap:butt;stroke-linejoin:miter;stroke-opacity:1"
       d="m 122.71982,64.732988 0.016,9.289203 14.99482,3.214057 c 0,0 21.25848,-5.329514 21.41351,-5.69125 0.15502,-0.361735 0.20671,-8.061524 0.20671,-8.061524 l -13.95264,-2.170409 -22.6784,3.419923 15.01082,2.832925 21.46519,-4.03076"
       id="path2619"
       sodipodi:nodetypes="cccsccccc"
       inkscape:export-filename="C:\Users\guill\Desktop\MecaWeb All\Mecaweb tauri\MecaWeb-app\MecaWeb\img\shapes\pave.png"
       inkscape:export-xdpi="96.643501"
       inkscape:export-ydpi="96.643501" />
    <path
       style="fill:none;stroke:#000000;stroke-width:0.264583px;stroke-linecap:butt;stroke-linejoin:miter;stroke-opacity:1"
       d="M 137.73064,77.236246 V 67.565913"
       id="path2734"
       inkscape:export-filename="C:\Users\guill\Desktop\MecaWeb All\Mecaweb tauri\MecaWeb-app\MecaWeb\img\shapes\pave.png"
       inkscape:export-xdpi="96.643501"
       inkscape:export-ydpi="96.643501" />
    <rect
       style="fill:none;fill-opacity:1;stroke:none;stroke-width:0.0892166;stroke-linecap:round;stroke-linejoin:round;stroke-miterlimit:4;stroke-dasharray:none"
       id="rect874-0-8-7"
       width="39.598286"
       height="31.660784"
       x="170.03903"
       y="52.963497"
       inkscape:export-filename="C:\Users\guill\Desktop\MecaWeb All\Mecaweb tauri\MecaWeb-app\MecaWeb\img\shapes\hollow_pave.png"
       inkscape:export-xdpi="96.643501"
       inkscape:export-ydpi="96.643501" />
    <path
       style="fill:none;stroke:#000000;stroke-width:0.264583px;stroke-linecap:butt;stroke-linejoin:miter;stroke-opacity:1"
       d="m 171.52227,64.251237 0.016,9.289203 14.99482,3.214057 c 0,0 21.25848,-5.329514 21.41351,-5.69125 0.15502,-0.361735 0.20671,-8.061524 0.20671,-8.061524 l -13.95264,-2.170409 -22.6784,3.419923 15.01082,2.832925 21.46519,-4.03076"
       id="path2619-0"
       sodipodi:nodetypes="cccsccccc"
       inkscape:export-filename="C:\Users\guill\Desktop\MecaWeb All\Mecaweb tauri\MecaWeb-app\MecaWeb\img\shapes\hollow_pave.png"
       inkscape:export-xdpi="96.643501"
       inkscape:export-ydpi="96.643501" />
    <path
       style="fill:none;stroke:#000000;stroke-width:0.264583px;stroke-linecap:butt;stroke-linejoin:miter;stroke-opacity:1"
       d="M 186.53309,76.754495 V 67.084162"
       id="path2734-2"
       inkscape:export-filename="C:\Users\guill\Desktop\MecaWeb All\Mecaweb tauri\MecaWeb-app\MecaWeb\img\shapes\hollow_pave.png"
       inkscape:export-xdpi="96.643501"
       inkscape:export-ydpi="96.643501" />
    <path
       style="fill:none;stroke:#000000;stroke-width:0.264583px;stroke-linecap:butt;stroke-linejoin:miter;stroke-opacity:1"
       d="m 172.75432,65.835773 12.24731,2.222088 v 6.717934 l -12.19564,-2.480468 z"
       id="path3428"
       sodipodi:nodetypes="ccccc"
       inkscape:export-filename="C:\Users\guill\Desktop\MecaWeb All\Mecaweb tauri\MecaWeb-app\MecaWeb\img\shapes\hollow_pave.png"
       inkscape:export-xdpi="96.643501"
       inkscape:export-ydpi="96.643501" />
    <path
       style="fill:none;stroke:#000000;stroke-width:0.264583px;stroke-linecap:butt;stroke-linejoin:miter;stroke-opacity:1"
       d="m 172.80599,72.295327 12.13572,-3.02641"
       id="path3562"
       inkscape:export-filename="C:\Users\guill\Desktop\MecaWeb All\Mecaweb tauri\MecaWeb-app\MecaWeb\img\shapes\hollow_pave.png"
       inkscape:export-xdpi="96.643501"
       inkscape:export-ydpi="96.643501" />
  </g>
</svg>
