<?xml version="1.0" encoding="UTF-8" standalone="no"?>
<!-- Created with Inkscape (http://www.inkscape.org/) -->

<svg
   width="210mm"
   height="297mm"
   viewBox="0 0 210 297"
   version="1.1"
   id="svg5"
   inkscape:version="1.1.1 (3bf5ae0d25, 2021-09-20)"
   sodipodi:docname="sidebar.svg"
   xmlns:inkscape="http://www.inkscape.org/namespaces/inkscape"
   xmlns:sodipodi="http://sodipodi.sourceforge.net/DTD/sodipodi-0.dtd"
   xmlns="http://www.w3.org/2000/svg"
   xmlns:svg="http://www.w3.org/2000/svg">
  <sodipodi:namedview
     id="namedview7"
     pagecolor="#ffffff"
     bordercolor="#666666"
     borderopacity="1.0"
     inkscape:pageshadow="2"
     inkscape:pageopacity="0.0"
     inkscape:pagecheckerboard="0"
     inkscape:document-units="mm"
     showgrid="false"
     inkscape:zoom="0.5"
     inkscape:cx="228"
     inkscape:cy="797"
     inkscape:window-width="1920"
     inkscape:window-height="1001"
     inkscape:window-x="-9"
     inkscape:window-y="-9"
     inkscape:window-maximized="1"
     inkscape:current-layer="layer1" />
  <defs
     id="defs2" />
  <g
     inkscape:label="Calque 1"
     inkscape:groupmode="layer"
     id="layer1">
    <path
       style="fill:none;stroke:#a3a818;stroke-width:1.5;stroke-linecap:butt;stroke-linejoin:miter;stroke-opacity:0.98823529;stroke-miterlimit:4;stroke-dasharray:none;fill-opacity:0.98823529"
       d="m 66.934727,93.635466 31.455664,2.194581 39.868229,13.167483"
       id="path49972" />
    <path
       style="fill:none;stroke:#a3a818;stroke-width:1.5;stroke-linecap:butt;stroke-linejoin:miter;stroke-opacity:0.98823529;stroke-miterlimit:4;stroke-dasharray:none;fill-opacity:0.98823529"
       d="M 71.689655,57.059112 98.390389,95.830045 117.4101,65.471674"
       id="path49974" />
    <path
       style="fill:none;stroke:#a3a818;stroke-width:1.5;stroke-linecap:butt;stroke-linejoin:miter;stroke-opacity:0.98823529;stroke-miterlimit:4;stroke-dasharray:none;fill-opacity:0.98823529"
       d="M 98.390389,95.830045 90.343595,125.82266"
       id="path49976" />
    <circle
       style="fill:#f0f3a6;fill-opacity:1;stroke:none;stroke-width:0.1"
       id="path959"
       cx="71.506767"
       cy="57.241993"
       r="10.790025" />
    <circle
       style="fill:#badd8c;fill-opacity:1;stroke:none;stroke-width:0.0813559"
       id="path959-3"
       cx="61.631153"
       cy="93.452583"
       r="8.7783251" />
    <circle
       style="fill:#badd8c;fill-opacity:1;stroke:none;stroke-width:0.0813559"
       id="path959-3-3"
       cx="117.04433"
       cy="65.83744"
       r="8.7783251" />
    <circle
       style="fill:#f0f3a6;fill-opacity:1;stroke:none;stroke-width:0.10339"
       id="path959-3-3-2"
       cx="138.07573"
       cy="105.52279"
       r="11.155788" />
    <circle
       style="fill:#d9e021;fill-opacity:1;stroke:none;stroke-width:0.0966835;stroke-miterlimit:4;stroke-dasharray:none"
       id="path959-3-3-2-3-4"
       cx="90.709358"
       cy="125.09113"
       r="10.424261" />
    <circle
       style="fill:#8dc63e;fill-opacity:1;stroke:none;stroke-width:0.133899;opacity:1"
       id="path959-3-3-2-3"
       cx="97.658867"
       cy="93.63546"
       r="14.44766" />
    <rect
       style="opacity:1;fill:none;fill-opacity:1;stroke:#a3a818;stroke-width:1.23056;stroke-miterlimit:4;stroke-dasharray:none;stroke-opacity:0.988235"
       id="rect54101"
       width="101.60486"
       height="96.842354"
       x="50.136112"
       y="42.198612" />
    <path
       style="fill:#361a18;fill-opacity:1;stroke-width:0.38715"
       d="m 88.37706,224.13535 c -0.60064,-0.16675 -1.58348,-0.43959 -2.1841,-0.60633 -0.983976,-0.27316 -1.273153,-0.13344 -2.921946,1.41129 l -1.829896,1.71444 -1.191142,-1.27135 -1.191152,-1.27137 -2.383066,2.23271 c -3.471273,3.25227 -5.400468,3.81312 -8.620548,2.50617 -1.381551,-0.56073 -2.308486,-1.41701 -7.367886,-6.80625 l -5.787507,-6.16482 -2.071181,-0.22878 c -2.44413,-0.26998 -3.639992,-1.28568 -3.318208,-2.81829 0.31664,-1.50818 22.477706,-22.31506 23.081231,-21.6709 0.338419,0.36121 3.228868,-2.22579 22.161951,-19.83528 l 21.77275,-20.25069 3.1618,-0.95648 c 3.4051,-1.03008 7.04141,-1.12231 9.97707,-0.2531 3.48893,1.03307 4.822,2.07749 10.95995,8.58687 3.14594,3.33638 5.86432,6.22926 6.04096,6.4285 0.22186,0.25178 -0.23535,0.88365 -1.49137,2.06042 l -1.81217,1.69784 0.45429,2.22697 c 0.24988,1.22484 0.35766,2.31731 0.23954,2.42766 -0.11809,0.11033 -1.16719,-0.10038 -2.33125,-0.46846 -1.16404,-0.36803 -2.16476,-0.62389 -2.22378,-0.5686 -0.0591,0.0553 0.14222,1.06042 0.44731,2.23353 0.30506,1.17313 0.44181,2.2387 0.3039,2.3679 -0.13798,0.12921 -0.83774,0.0426 -1.55512,-0.19266 -0.71742,-0.23518 -1.73672,-0.49711 -2.26511,-0.58208 -0.92502,-0.14877 -0.93973,-0.0738 -0.39528,2.01999 0.31101,1.19598 0.45359,2.27932 0.31688,2.40741 -0.13681,0.12804 -1.201,-0.0682 -2.36508,-0.43622 -1.16405,-0.36804 -2.17842,-0.60789 -2.25419,-0.53302 -0.0758,0.0749 0.10653,1.09751 0.40512,2.27253 0.29856,1.17501 0.41824,2.25314 0.26596,2.3958 -0.15228,0.14267 -0.97549,0.0187 -1.82936,-0.27553 -2.83221,-0.97588 -2.80495,-0.99305 -2.30612,1.4522 0.25414,1.24575 0.35396,2.36628 0.22183,2.49007 -0.13213,0.12379 -1.18181,-0.0865 -2.33259,-0.46722 -1.15077,-0.38075 -2.14063,-0.64703 -2.19967,-0.59172 -0.0591,0.0553 0.13111,1.07054 0.42266,2.25608 0.29149,1.18555 0.43359,2.2461 0.31575,2.35679 -0.11779,0.11063 -1.21777,-0.0726 -2.44434,-0.4072 -2.40763,-0.65691 -2.38871,-0.68302 -1.59921,2.20672 0.23801,0.8712 0.30817,1.70073 0.15589,1.8434 -0.15228,0.14267 -1.2203,-0.047 -2.3734,-0.42131 -1.15311,-0.37439 -2.16171,-0.62285 -2.24136,-0.55215 -0.0797,0.0707 0.0936,1.09855 0.38519,2.2841 0.29151,1.18554 0.42068,2.25794 0.28709,2.38311 -0.1336,0.12511 -1.23248,-0.0724 -2.44194,-0.43909 l -2.19903,-0.66669 0.22269,1.05936 c 0.12248,0.58267 0.33583,1.60994 0.47405,2.28285 0.13828,0.67288 0.14736,1.32088 0.0202,1.43998 -0.12715,0.11911 -1.17267,-0.095 -2.32346,-0.47576 -1.15077,-0.38075 -2.13707,-0.65039 -2.19174,-0.59916 -0.0547,0.0512 0.10506,1.09527 0.35491,2.3201 0.24987,1.22484 0.38839,2.28874 0.30783,2.36422 -0.0806,0.0755 -1.13322,-0.13198 -2.3392,-0.46102 -1.20596,-0.32904 -2.2374,-0.55637 -2.29207,-0.50514 -0.0547,0.0512 0.1502,1.05295 0.45525,2.22608 0.30505,1.17313 0.45066,2.2304 0.32355,2.34949 -0.12716,0.11911 -0.72254,0.08 -1.32317,-0.0866 -0.60062,-0.16672 -1.61183,-0.44645 -2.24715,-0.6216 l -1.15508,-0.31845 0.52216,2.23776 c 0.28719,1.23076 0.41285,2.34015 0.27926,2.46534 -0.1336,0.1251 -1.19533,-0.0736 -2.35939,-0.44157 -1.16406,-0.36803 -2.17844,-0.60788 -2.25419,-0.53302 -0.0756,0.0749 0.10652,1.09751 0.40512,2.27253 0.29854,1.17503 0.41824,2.25314 0.26596,2.3958 -0.15229,0.14267 -0.97549,0.0187 -1.82936,-0.27553 -2.83223,-0.97588 -2.80495,-0.99306 -2.30612,1.45222 0.25413,1.24573 0.3654,2.35527 0.24728,2.46566 -0.11813,0.11033 -1.16718,-0.10038 -2.33124,-0.46847 -1.16406,-0.36803 -2.16537,-0.62333 -2.22514,-0.56733 -0.0598,0.056 0.12982,1.07179 0.42132,2.25733 0.2915,1.18555 0.43769,2.24225 0.32488,2.34825 -0.11281,0.10594 -0.69653,0.0563 -1.29716,-0.11047 z m 18.7421,-22.20171 c -0.23801,-0.8712 -0.26485,-1.74133 -0.0596,-1.93362 0.20523,-0.19229 1.33196,-0.0323 2.50382,0.35538 l 2.13069,0.70496 -0.52618,-2.20823 c -0.28941,-1.21454 -0.39849,-2.32788 -0.24242,-2.4741 0.15607,-0.14618 1.16534,-0.0176 2.24284,0.28602 1.07749,0.30354 2.04584,0.47059 2.15185,0.37125 0.10608,-0.0994 -0.009,-0.98854 -0.2559,-1.97599 -0.24676,-0.98745 -0.34487,-1.9837 -0.21798,-2.21387 0.12687,-0.23017 1.1132,-0.15718 2.19183,0.1622 1.07864,0.31939 2.04709,0.50018 2.15212,0.40178 0.10491,-0.0983 -0.0325,-1.04382 -0.3057,-2.10094 -0.27315,-1.05714 -0.34555,-2.06361 -0.1609,-2.23662 0.18466,-0.173 1.29595,-0.0234 2.46955,0.33236 l 2.13381,0.64693 -0.49726,-2.18022 c -0.27349,-1.19913 -0.35347,-2.31493 -0.17772,-2.47959 0.17575,-0.16466 1.2835,0.0196 2.46165,0.40937 l 2.14212,0.70875 -0.52001,-2.22851 c -0.28601,-1.22569 -0.36893,-2.37006 -0.18428,-2.54306 0.18466,-0.17302 1.18428,-0.0353 2.2214,0.30611 1.03712,0.34136 1.97414,0.53777 2.08227,0.43644 0.10814,-0.10126 -0.0117,-1.0038 -0.26599,-2.00551 -0.25443,-1.00171 -0.27686,-1.99531 -0.0499,-2.20801 0.22702,-0.2127 1.21705,-0.1257 2.20009,0.19341 0.98304,0.3191 1.8694,0.49575 1.96969,0.39254 0.0998,-0.10359 -0.006,-1.07869 -0.23435,-2.16777 -0.22919,-1.08911 -0.29676,-2.09256 -0.15016,-2.22991 0.1466,-0.1374 1.13784,0.009 2.20276,0.32358 1.06492,0.3153 2.02642,0.48877 2.13669,0.38546 0.11018,-0.1033 -0.032,-1.04429 -0.31622,-2.09107 -0.28419,-1.0468 -0.3516,-2.05795 -0.14981,-2.24702 0.2018,-0.18905 1.31297,-0.0307 2.46925,0.35187 l 2.10236,0.6956 -0.46227,-2.09957 c -0.28893,-1.31227 -0.78743,-2.39175 -1.32939,-2.87874 l -0.86713,-0.77915 -28.67621,26.86697 -28.676246,26.86699 0.648475,0.8736 c 0.620557,0.836 4.236701,2.24201 4.685301,1.8217 0.11026,-0.1033 -0.032,-1.04429 -0.31621,-2.09106 -0.28419,-1.04681 -0.36707,-2.04346 -0.1842,-2.2148 0.18288,-0.17134 1.0891,-0.0726 2.01382,0.2195 0.92472,0.29208 1.86128,0.49469 2.08123,0.45028 0.21994,-0.0445 0.19811,-0.97177 -0.0486,-2.06078 -0.24666,-1.08899 -0.29899,-2.12007 -0.11627,-2.29125 0.18272,-0.1712 1.18076,-0.0319 2.21788,0.30942 1.0371,0.34136 1.97412,0.53775 2.08227,0.43644 0.10813,-0.10126 -0.0117,-1.0038 -0.26599,-2.00553 -0.25443,-1.00171 -0.27685,-1.99531 -0.0498,-2.20799 0.22702,-0.2127 1.21706,-0.1257 2.20009,0.19342 0.98304,0.31909 1.87409,0.49888 1.98011,0.39954 0.10609,-0.0994 0.003,-1.07649 -0.23043,-2.17146 -0.23277,-1.09496 -0.30504,-2.10157 -0.16059,-2.23691 0.14442,-0.13535 1.13393,0.0117 2.19885,0.32724 1.06493,0.31532 2.02887,0.4865 2.1421,0.3804 0.11325,-0.10608 -0.0176,-1.05781 -0.29075,-2.11493 -0.27315,-1.05714 -0.343,-2.066 -0.15521,-2.24194 0.18778,-0.17593 1.28817,-0.007 2.44531,0.37623 2.25949,0.74757 2.25444,0.75461 1.48338,-2.06759 z m -26.545274,18.30182 c -0.190061,-0.006 -0.440998,-0.36793 -0.557639,-0.80387 -0.155501,-0.58117 -0.314505,-0.7078 -0.596073,-0.47472 -0.211208,0.17483 -0.306689,0.1456 -0.212224,-0.0651 0.101272,-0.22561 -0.744001,-1.28399 -2.058086,-2.57699 -2.932873,-2.8858 -5.165515,-6.28887 -5.495015,-8.3757 -0.143574,-0.90929 -0.422831,-1.69704 -0.620553,-1.75057 -0.197733,-0.0536 -0.122064,-0.28707 0.168159,-0.51898 0.323612,-0.25847 0.337659,-0.55143 0.03645,-0.75719 -0.270176,-0.18456 -0.306066,-0.32946 -0.07962,-0.32215 0.226389,0.007 0.458352,-0.3396 0.515482,-0.77106 0.124917,-0.94344 1.032693,-2.62336 2.781073,-5.14665 l 1.296892,-1.87169 -1.820417,-1.94301 -1.820419,-1.94301 -4.205097,4.00716 c -3.09795,2.95222 -4.075954,4.04815 -3.714638,4.16276 0.310162,0.0983 0.228966,0.15679 -0.220932,0.15887 -0.52474,0.003 -2.357972,1.54605 -6.988104,5.88405 -4.769354,4.46845 -6.225997,5.99239 -6.065307,6.3458 0.116299,0.25576 1.229008,0.58634 2.472693,0.73456 l 2.261252,0.26953 6.353164,6.60937 c 5.96192,6.20236 6.435617,6.62429 7.692065,6.85135 2.236628,0.40425 3.030573,-0.0329 7.286701,-4.01206 2.164489,-2.02392 3.780183,-3.68465 3.590147,-3.69081 z m -9.089491,4.71878 c -0.07098,-0.14091 -0.67329,-0.38296 -1.338478,-0.53777 -1.076922,-0.25063 -1.764746,-0.89343 -6.278442,-5.86751 -4.565902,-5.03159 -5.070853,-5.69583 -5.087448,-6.69216 -0.03958,-2.3758 2.010081,-4.16673 4.582471,-4.00403 1.261583,0.0797 1.565087,0.31634 5.315276,4.14238 4.789899,4.88681 6.236454,6.81751 6.34394,8.46716 0.06918,1.06182 -0.176112,1.50372 -1.663562,2.99686 -0.959612,0.96322 -1.80275,1.63607 -1.873757,1.49507 z m 1.960399,-4.31191 c 0.04314,-1.32402 -0.02249,-1.41389 -4.600519,-6.3002 -4.291331,-4.58032 -4.72743,-4.95974 -5.738716,-4.99268 -1.32953,-0.0433 -2.575827,1.03932 -2.682445,2.33014 -0.07068,0.85575 0.404465,1.46635 4.715473,6.05988 2.636597,2.80965 5.016761,5.15872 5.288957,5.22042 0.648366,0.147 2.125879,-0.21682 2.599436,-0.64008 0.205301,-0.18432 0.393733,-0.93875 0.417795,-1.6775 z m 62.355466,-59.41019 c -2.35618,-2.51485 -4.10684,-4.10291 -5.27858,-4.78834 -2.63724,-1.54268 -5.69162,-1.8922 -8.7019,-0.99577 l -2.56427,0.76359 -21.11127,19.7793 c -20.276168,18.99691 -21.097332,19.80496 -20.759489,20.42773 0.275729,0.50827 0.0086,1.04454 -1.235402,2.4808 -1.848627,2.13421 -3.092434,4.832 -3.214738,6.97267 -0.15153,2.65228 0.543999,3.92355 4.78704,8.74962 l 3.900311,4.43624 28.851858,-27.03152 28.85184,-27.03152 z"
       id="path54881"
       sodipodi:nodetypes="csscccssscsssscssccscssssssssssscssssssssssssscssscssssssssssssscssscsssssssssccssscssssssssssscssscssssssscssssssscsscccsssssssssssssssssssssscsscssscscssccccssssscsscccssssssssssssscscssssscssssscccs" />
    <path
       style="fill:#d9e021;fill-opacity:1;stroke-width:0.38715"
       d="m 107.11917,201.93364 c -0.23801,-0.87119 -0.26484,-1.74132 -0.0596,-1.93361 0.20523,-0.19228 1.33195,-0.0323 2.50382,0.35538 2.6745,0.9307 2.21808,1.07173 1.60451,-1.50326 -0.2894,-1.21454 -0.3985,-2.32788 -0.24243,-2.47411 0.15607,-0.14618 1.16536,-0.0176 2.24285,0.28602 1.07749,0.30353 2.04583,0.4706 2.15185,0.37126 0.10609,-0.0994 -0.009,-0.98854 -0.25589,-1.976 -0.24678,-0.98746 -0.34487,-1.98371 -0.21798,-2.21386 0.12686,-0.23017 1.11319,-0.15719 2.19183,0.1622 1.07863,0.31937 2.04707,0.50018 2.1521,0.40178 0.10491,-0.0983 -0.0325,-1.04383 -0.30569,-2.10095 -0.27316,-1.05714 -0.34556,-2.0636 -0.1609,-2.23662 0.18466,-0.173 1.29596,-0.0234 2.46955,0.33237 2.65982,0.8477 2.22017,1.02553 1.63656,-1.5333 -0.2735,-1.19913 -0.35348,-2.31494 -0.17773,-2.4796 0.17574,-0.16465 1.28349,0.0196 2.46165,0.40938 2.69229,0.93839 2.22709,1.0729 1.62211,-1.51975 -0.286,-1.22569 -0.36894,-2.37007 -0.18428,-2.54308 0.18467,-0.173 1.18428,-0.0353 2.2214,0.30612 1.03711,0.34136 1.97413,0.53776 2.08228,0.43645 0.10813,-0.10126 -0.0117,-1.00381 -0.26599,-2.00552 -0.25443,-1.00172 -0.27686,-1.99532 -0.0499,-2.20801 0.22702,-0.21271 1.21706,-0.12569 2.2001,0.19341 0.98302,0.31911 1.86938,0.49574 1.96969,0.39255 0.0998,-0.1036 -0.006,-1.07869 -0.23436,-2.16777 -0.22918,-1.08911 -0.29676,-2.09258 -0.15017,-2.22992 0.1466,-0.1374 1.13785,0.009 2.20277,0.32358 1.06493,0.3153 2.02643,0.48877 2.13668,0.38547 0.11018,-0.10331 -0.032,-1.04429 -0.31622,-2.09109 -0.28419,-1.04679 -0.35159,-2.05794 -0.14979,-2.247 0.20179,-0.18907 1.31295,-0.0307 2.46924,0.35185 2.57185,0.87493 2.19735,1.12696 1.64004,-1.40401 -0.28893,-1.31227 -0.78743,-2.39176 -1.32939,-2.87874 l -0.86714,-0.77915 -28.67621,26.86696 -28.676235,26.867 0.648473,0.8736 c 2.497792,1.33483 5.457372,3.79997 4.369092,-0.26937 -0.28419,-1.04681 -0.36707,-2.04345 -0.1842,-2.2148 0.18288,-0.17133 1.0891,-0.0726 2.01382,0.2195 0.92472,0.29208 1.86128,0.49471 2.08123,0.45029 0.21994,-0.0445 0.19811,-0.97177 -0.0486,-2.06078 -0.24666,-1.08899 -0.29899,-2.12007 -0.11627,-2.29126 0.18272,-0.17118 1.18076,-0.0319 2.21787,0.30942 1.03711,0.34136 1.97414,0.53776 2.08228,0.43644 0.10813,-0.10125 -0.0117,-1.0038 -0.26598,-2.00551 -0.25444,-1.00171 -0.27686,-1.99531 -0.0498,-2.20801 0.22702,-0.2127 1.21706,-0.12569 2.20009,0.19343 2.50795,0.91113 2.14623,0.12525 1.74972,-1.77188 -0.23277,-1.09496 -0.30504,-2.10157 -0.16059,-2.23691 0.14442,-0.13535 1.13393,0.0117 2.19885,0.32724 2.55663,0.82372 2.3695,0.30285 1.85135,-1.73453 -0.27315,-1.05714 -0.343,-2.066 -0.15521,-2.24194 0.18778,-0.17593 1.28817,-0.007 2.44531,0.37623 2.25949,0.74757 2.25444,0.75461 1.48338,-2.06759 z"
       id="path54881-4"
       sodipodi:nodetypes="ssccsssssssssccsccsssssscssssssccscccccsssssssssccsccsss" />
    <path
       style="fill:#8dc63e;fill-opacity:1;stroke-width:0.38715"
       d="m 80.573886,220.23546 c -0.190061,-0.006 -0.440998,-0.36793 -0.557639,-0.80387 -0.155501,-0.58117 -0.314505,-0.7078 -0.596073,-0.47472 -0.211208,0.17483 -0.306689,0.1456 -0.212224,-0.0651 0.101272,-0.22561 -0.744001,-1.28399 -2.058086,-2.57699 -2.932873,-2.8858 -5.165515,-6.28887 -5.495015,-8.3757 -0.143574,-0.90929 -0.422831,-1.69704 -0.620553,-1.75057 -0.197733,-0.0536 -0.122064,-0.28707 0.168159,-0.51898 0.323612,-0.25847 0.337659,-0.55143 0.03645,-0.75719 -0.270176,-0.18456 -0.306066,-0.32946 -0.07962,-0.32215 0.226389,0.007 0.458352,-0.3396 0.515482,-0.77106 0.124917,-0.94344 1.032693,-2.62336 2.781073,-5.14665 l 1.296892,-1.87169 -1.820417,-1.94301 -1.820419,-1.94301 -4.205097,4.00716 c -3.09795,2.95222 -4.075954,4.04815 -3.714638,4.16276 0.310162,0.0983 0.228966,0.15679 -0.220932,0.15887 -0.52474,0.003 -2.357972,1.54605 -6.988104,5.88405 -4.769354,4.46845 -6.225997,5.99239 -6.065307,6.3458 0.116299,0.25576 1.229008,0.58634 2.472693,0.73456 l 2.261252,0.26953 6.353164,6.60937 c 5.96192,6.20236 6.435617,6.62429 7.692065,6.85135 2.236628,0.40425 3.030573,-0.0329 7.286701,-4.01206 2.164489,-2.02392 3.780183,-3.68465 3.590147,-3.69081 z m -9.089491,4.71878 c -0.07098,-0.14091 -0.67329,-0.38296 -1.338478,-0.53777 -1.076922,-0.25063 -1.764746,-0.89343 -6.278442,-5.86751 -4.565902,-5.03159 -5.070853,-5.69583 -5.087448,-6.69216 -0.03958,-2.3758 2.010081,-4.16673 4.582471,-4.00403 1.261583,0.0797 1.565087,0.31634 5.315276,4.14238 4.789899,4.88681 6.236454,6.81751 6.34394,8.46716 0.06918,1.06182 -0.176112,1.50372 -1.663562,2.99686 -0.959612,0.96322 -1.80275,1.63607 -1.873757,1.49507 z"
       id="path54881-3"
       sodipodi:nodetypes="csscssscscssccccssssscsscccsssssssss" />
  </g>
</svg>
